<svg xmlns="http://www.w3.org/2000/svg" viewBox="0 0 480 160">
	<title>Lakta</title>
	<style>.wm{fill:#f2e7d4}</style>
	<g transform="translate(10 15) scale(5.4)">
		<circle cx="8.6" cy="1.4" r="1.15" fill="#00ADD8"/>
		<circle cx="15.4" cy="1.4" r="1.15" fill="#00ADD8"/>
		<circle cx="8.6" cy="1.45" r="0.55" fill="#7fd8ec"/>
		<circle cx="15.4" cy="1.45" r="0.55" fill="#7fd8ec"/>
		<path d="M6.8 5.5 a5.2 5.2 0 0 1 10.4 0 Z" fill="#00ADD8"/>
		<circle cx="9.85" cy="3.7" r="1.35" fill="#fffdf7"/>
		<circle cx="14.15" cy="3.7" r="1.35" fill="#fffdf7"/>
		<circle cx="10.35" cy="3.95" r="0.52" fill="#231f20"/>
		<circle cx="13.65" cy="3.95" r="0.52" fill="#231f20"/>
		<circle cx="10.5" cy="3.78" r="0.2" fill="#ffffff"/>
		<circle cx="13.8" cy="3.78" r="0.2" fill="#ffffff"/>
		<ellipse cx="12" cy="5.5" rx="1.5" ry="1.05" fill="#F6D2A6"/>
		<ellipse cx="12" cy="5.0" rx="0.72" ry="0.5" fill="#5B4632"/>
		<path fill="#d97706" d="M2.5 5.5 L14 5.5 C18.5 5.2 21.8 6 23 7.5 C21.2 9.4 17.6 10 14.6 9.8 L13.8 9.8 L13.4 12.8 L16.8 16.8 L17.2 18.2 L17.2 20.5 L4.8 20.5 L4.8 18.2 L5.2 16.8 L8.6 12.8 L8.2 9.8 L2.5 9.8 Z"/>
		<g fill="#F6D2A6">
			<rect x="8.0" y="4.95" width="2.3" height="1.7" rx="0.85"/>
			<rect x="13.7" y="4.95" width="2.3" height="1.7" rx="0.85"/>
		</g>
		<g stroke="#d9b184" stroke-width="0.22" stroke-linecap="round">
			<path d="M8.77 5.2 v1.2"/><path d="M9.53 5.2 v1.2"/>
			<path d="M14.47 5.2 v1.2"/><path d="M15.23 5.2 v1.2"/>
		</g>
	</g>
	<path class="wm" transform="translate(165.7 125.7) scale(1.15)" d="M53 0L7 0L7-70L21-70L21-12L53-12L53 0ZM80 1L80 1Q74 1 69-2Q63-6 60-11Q57-17 57-24L57-24Q57-31 60-37Q63-43 69-46Q74-49 80-49L80-49Q86-49 90-47L90-47Q92-46 94-44L94-44L94-48L107-48L107 0L94 0L94-5Q92-3 90-1L90-1Q86 1 80 1ZM83-11L83-11Q88-11 92-15Q95-18 95-24L95-24Q95-28 94-31Q92-34 89-36Q87-37 83-37L83-37Q79-37 76-36Q74-34 72-31Q71-28 71-24L71-24Q71-20 72-17Q74-14 76-13Q79-11 83-11ZM166 0L150 0L132-24L132 0L119 0L119-72L132-72L132-26L150-48L165-48L146-25L166 0ZM189 0L176 0L176-37L165-37L165-48L176-48L176-68L189-68L189-48L200-48L200-37L189-37L189 0ZM227 1L227 1Q220 1 215-2Q210-6 207-11Q204-17 204-24L204-24Q204-31 207-37Q210-43 215-46Q220-49 227-49L227-49Q232-49 236-47L236-47Q239-46 241-44L241-44L241-48L254-48L254 0L241 0L241-5Q239-3 236-1L236-1Q232 1 227 1ZM229-11L229-11Q235-11 238-15Q242-18 242-24L242-24Q242-28 240-31Q238-34 236-36Q233-37 229-37L229-37Q226-37 223-36Q220-34 219-31Q217-28 217-24L217-24Q217-20 219-17Q220-14 223-13Q226-11 229-11Z"/>
</svg>
